<svg width="69" height="62" viewBox="0 0 69 62" fill="none" xmlns="http://www.w3.org/2000/svg">
<path d="M24.9479 37.7425C24.3872 38.4933 23.0396 39.9755 21.2768 41.7483C19.5195 43.5211 17.3471 45.5797 15.1477 47.4833C9.2288 52.5983 6.18848 53.9691 4.36645 53.9691C3.69262 53.9691 3.1859 53.7802 2.76005 53.5234C1.18598 52.5789 0.140202 50.3411 4.30176 40.9345C6.55505 35.8292 9.50372 30.6028 10.6304 29.1013C13.2825 25.5508 18.6516 24.6063 22.5975 26.9894C24.5112 28.1422 25.8104 29.8956 26.2524 31.93C26.6944 33.9595 26.2308 36.023 24.9479 37.7425Z" fill="url(#paint0_linear_104_289)"/>
<path d="M66.24 53.5234C65.8142 53.7802 65.3075 53.9691 64.6336 53.9691C62.8116 53.9691 59.7713 52.5983 53.8524 47.4833C49.4482 43.6761 45.1735 39.2441 44.0522 37.7425C42.7639 36.023 42.3057 33.9595 42.7477 31.93C43.1897 29.8956 44.4889 28.1422 46.4025 26.9894C50.3485 24.6063 55.7175 25.5556 58.3697 29.1013C59.4964 30.6028 62.445 35.8292 64.6983 40.9345C68.8599 50.3411 67.8141 52.5789 66.24 53.5234Z" fill="url(#paint1_linear_104_289)"/>
<path d="M53.6314 35.0445C53.6152 41.167 51.7716 55.9356 35.0122 60.9586C34.845 61.007 34.6725 61.0312 34.5 61.0312C34.3275 61.0312 34.155 61.007 33.9879 60.9586C17.2285 55.9356 15.3849 41.167 15.3687 35.0445C15.3633 32.6227 15.8539 30.2056 16.8296 27.8709L17.3525 26.6164C17.5897 26.0497 18.1934 25.6719 18.8672 25.6719H50.1329C50.8067 25.6719 51.4104 26.0497 51.6476 26.6164L52.1705 27.8709C53.1462 30.2056 53.6368 32.6227 53.6314 35.0445Z" fill="url(#paint2_linear_104_289)"/>
<path d="M38.2735 52.7969H30.7266C29.8334 52.7969 29.1094 52.1464 29.1094 51.3438C29.1094 50.5411 29.8334 49.8906 30.7266 49.8906H38.2735C39.1667 49.8906 39.8907 50.5411 39.8907 51.3438C39.8907 52.1464 39.1667 52.7969 38.2735 52.7969Z" fill="#A4EEFF"/>
<path d="M46.8985 34.875V42.625C46.8985 44.7611 44.9632 46.5 42.586 46.5H26.4141C24.0368 46.5 22.1016 44.7611 22.1016 42.625V34.875C22.1016 32.7389 24.0368 31 26.4141 31H42.586C44.9632 31 46.8985 32.7389 46.8985 34.875Z" fill="url(#paint3_linear_104_289)"/>
<path d="M29.1202 40.2031C28.2275 40.2031 27.5003 39.5526 27.5003 38.75C27.5003 37.9474 28.2221 37.2969 29.1148 37.2969H29.1202C30.0134 37.2969 30.7374 37.9474 30.7374 38.75C30.7374 39.5526 30.0134 40.2031 29.1202 40.2031ZM34.5108 40.2031C33.6181 40.2031 32.8909 39.5526 32.8909 38.75C32.8909 37.9474 33.6128 37.2969 34.5054 37.2969H34.5108C35.4041 37.2969 36.128 37.9474 36.128 38.75C36.128 39.5526 35.4041 40.2031 34.5108 40.2031ZM39.9015 40.2031C39.0088 40.2031 38.2816 39.5526 38.2816 38.75C38.2816 37.9474 39.0034 37.2969 39.8961 37.2969H39.9015C40.7947 37.2969 41.5186 37.9474 41.5186 38.75C41.5186 39.5526 40.7947 40.2031 39.9015 40.2031Z" fill="#384051"/>
<path d="M21.5625 7.75V16.4688C21.5625 17.2728 20.8402 17.9219 19.9454 17.9219H17.7891C15.1154 17.9219 12.9375 15.965 12.9375 13.5625V10.6562C12.9375 8.25375 15.1154 6.29688 17.7891 6.29688H19.9454C20.8402 6.29688 21.5625 6.94594 21.5625 7.75Z" fill="url(#paint4_linear_104_289)"/>
<path d="M56.6016 10.6562V13.5625C56.6016 15.965 54.4238 17.9219 51.75 17.9219H49.0547C48.1599 17.9219 47.4375 17.2728 47.4375 16.4688V7.75C47.4375 6.94594 48.1599 6.29688 49.0547 6.29688H51.75C54.4238 6.29688 56.6016 8.25375 56.6016 10.6562Z" fill="url(#paint5_linear_104_289)"/>
<path d="M44.7422 21.7969H24.2579C21.8763 21.7969 19.9454 20.0618 19.9454 17.9219V6.29688C19.9454 4.15691 21.8763 2.42188 24.2579 2.42188H44.7422C47.1238 2.42188 49.0547 4.15691 49.0547 6.29688V17.9219C49.0547 20.0618 47.1238 21.7969 44.7422 21.7969Z" fill="#A4EEFF"/>
<path d="M44.7422 21.7969H24.2579C21.8763 21.7969 19.9454 20.0618 19.9454 17.9219V6.29688C19.9454 4.15691 21.8763 2.42188 24.2579 2.42188H44.7422C47.1238 2.42188 49.0547 4.15691 49.0547 6.29688V17.9219C49.0547 20.0618 47.1238 21.7969 44.7422 21.7969Z" fill="url(#paint6_linear_104_289)"/>
<path d="M31.2657 13.5625C30.8517 13.5625 30.4382 13.4206 30.1223 13.1367C29.5633 12.6354 28.6555 12.6354 28.0965 13.1367C27.4647 13.7044 26.4416 13.7044 25.8098 13.1367C25.178 12.5695 25.178 11.6492 25.8098 11.082C27.6292 9.44677 30.5897 9.44677 32.409 11.082C33.0408 11.6492 33.0408 12.5695 32.409 13.1367C32.0931 13.4206 31.6797 13.5625 31.2657 13.5625ZM42.0469 13.5625C41.6329 13.5625 41.2195 13.4206 40.9036 13.1367C40.3446 12.6354 39.4368 12.6354 38.8778 13.1367C38.246 13.7044 37.2228 13.7044 36.5911 13.1367C35.9593 12.5695 35.9593 11.6492 36.5911 11.082C38.4104 9.44677 41.3709 9.44677 43.1903 11.082C43.8221 11.6492 43.8221 12.5695 43.1903 13.1367C42.8744 13.4206 42.4609 13.5625 42.0469 13.5625Z" fill="#384051"/>
<path d="M44.7422 23.25H24.2579C20.9884 23.25 18.3282 20.8596 18.3282 17.9219V6.29688C18.3282 3.35914 20.9884 0.96875 24.2579 0.96875H44.7422C48.0116 0.96875 50.6719 3.35914 50.6719 6.29688V17.9219C50.6719 20.8596 48.0116 23.25 44.7422 23.25ZM24.2579 3.875C22.7717 3.875 21.5625 4.96145 21.5625 6.29688V17.9219C21.5625 19.2573 22.7717 20.3438 24.2579 20.3438H44.7422C46.2284 20.3438 47.4375 19.2573 47.4375 17.9219V6.29688C47.4375 4.96145 46.2284 3.875 44.7422 3.875H24.2579Z" fill="url(#paint7_linear_104_289)"/>
<defs>
<linearGradient id="paint0_linear_104_289" x1="1.37676" y1="30.9997" x2="67.6248" y2="30.9997" gradientUnits="userSpaceOnUse">
<stop offset="0.004" stop-color="#7994D8"/>
<stop offset="0.037" stop-color="#728DD2"/>
<stop offset="0.175" stop-color="#5C75BC"/>
<stop offset="0.321" stop-color="#4C64AC"/>
<stop offset="0.48" stop-color="#425AA3"/>
<stop offset="0.677" stop-color="#3F57A0"/>
<stop offset="1" stop-color="#2A428B"/>
</linearGradient>
<linearGradient id="paint1_linear_104_289" x1="67.6248" y1="31.0004" x2="1.37587" y2="31.0004" gradientUnits="userSpaceOnUse">
<stop offset="0.004" stop-color="#7994D8"/>
<stop offset="0.037" stop-color="#728DD2"/>
<stop offset="0.175" stop-color="#5C75BC"/>
<stop offset="0.321" stop-color="#4C64AC"/>
<stop offset="0.48" stop-color="#425AA3"/>
<stop offset="0.677" stop-color="#3F57A0"/>
<stop offset="1" stop-color="#2A428B"/>
</linearGradient>
<linearGradient id="paint2_linear_104_289" x1="1.37605" y1="31" x2="67.624" y2="31" gradientUnits="userSpaceOnUse">
<stop stop-color="#A4EEFF"/>
<stop offset="0.732" stop-color="#02C0FC"/>
<stop offset="1" stop-color="#27A6FF"/>
</linearGradient>
<linearGradient id="paint3_linear_104_289" x1="1.37598" y1="31" x2="67.6241" y2="31" gradientUnits="userSpaceOnUse">
<stop offset="0.239" stop-color="#E8F8FC"/>
<stop offset="0.36" stop-color="#DAF5FB"/>
<stop offset="0.586" stop-color="#B6EBF8"/>
<stop offset="0.638" stop-color="#ADE9F7"/>
<stop offset="0.973" stop-color="#80CBF7"/>
</linearGradient>
<linearGradient id="paint4_linear_104_289" x1="1.37598" y1="31" x2="67.6241" y2="31" gradientUnits="userSpaceOnUse">
<stop offset="0.004" stop-color="#7994D8"/>
<stop offset="0.037" stop-color="#728DD2"/>
<stop offset="0.175" stop-color="#5C75BC"/>
<stop offset="0.321" stop-color="#4C64AC"/>
<stop offset="0.48" stop-color="#425AA3"/>
<stop offset="0.677" stop-color="#3F57A0"/>
<stop offset="1" stop-color="#2A428B"/>
</linearGradient>
<linearGradient id="paint5_linear_104_289" x1="67.6241" y1="31" x2="1.37598" y2="31" gradientUnits="userSpaceOnUse">
<stop offset="0.004" stop-color="#7994D8"/>
<stop offset="0.037" stop-color="#728DD2"/>
<stop offset="0.175" stop-color="#5C75BC"/>
<stop offset="0.321" stop-color="#4C64AC"/>
<stop offset="0.48" stop-color="#425AA3"/>
<stop offset="0.677" stop-color="#3F57A0"/>
<stop offset="1" stop-color="#2A428B"/>
</linearGradient>
<linearGradient id="paint6_linear_104_289" x1="1.37598" y1="31" x2="67.6241" y2="31" gradientUnits="userSpaceOnUse">
<stop offset="0.184" stop-color="#E8F8FC"/>
<stop offset="0.31" stop-color="#DAF5FB"/>
<stop offset="0.547" stop-color="#B6EBF8"/>
<stop offset="0.601" stop-color="#ADE9F7"/>
<stop offset="0.723" stop-color="#A0E1F7"/>
<stop offset="0.943" stop-color="#80CBF7"/>
</linearGradient>
<linearGradient id="paint7_linear_104_289" x1="18.3283" y1="12.1094" x2="50.672" y2="12.1094" gradientUnits="userSpaceOnUse">
<stop stop-color="#A4EEFF"/>
<stop offset="0.732" stop-color="#02C0FC"/>
<stop offset="1" stop-color="#27A6FF"/>
</linearGradient>
</defs>
</svg>
