<svg width="61" height="43" viewBox="0 0 61 43" fill="none" xmlns="http://www.w3.org/2000/svg">
<path d="M60.8 42.501H31C31 39.301 32.3 36.401 34.3 34.201C34.4 34.101 34.5 34.001 34.6 33.901C35.9 32.601 37.4 31.601 39.1 31.001C40 33.901 42.7 36.101 45.9 36.101C49.1 36.101 51.8 34.001 52.7 31.001C54.5 31.601 56.2 32.701 57.5 34.101C59.6 36.401 60.8 39.301 60.8 42.501Z" fill="#EF6082"/>
<path d="M52.7001 31.1014C51.8001 34.0014 49.1001 36.2014 45.9001 36.2014C42.7001 36.2014 39.9001 34.1014 39.1001 31.1014C39.5001 31.0014 39.9001 30.8014 40.3001 30.7014C41.0001 30.5014 41.8001 30.4014 42.6001 30.4014C43.0001 31.8014 44.4001 32.9014 45.9001 32.9014C47.5001 32.9014 48.8001 31.9014 49.2001 30.4014C50.0001 30.4014 50.7001 30.5014 51.5001 30.7014C51.9001 30.9014 52.3001 31.0014 52.7001 31.1014Z" fill="#DF4666"/>
<path d="M49.4 27.4014V29.4014C49.4 29.8014 49.3 30.1014 49.2 30.4014C48.8 31.8014 47.4 32.9014 45.9 32.9014C44.3 32.9014 43 31.9014 42.6 30.4014C42.5 30.1014 42.4 29.7014 42.4 29.4014V27.4014C43.5 27.9014 44.7 28.1014 45.9 28.1014C47.1 28.1014 48.3 27.9014 49.4 27.4014Z" fill="#E0C28B"/>
<path d="M42.6 30.5008C41.8 30.5008 41.1 30.6008 40.3 30.8008C39.9 30.9008 39.5 31.0008 39.1 31.2008C37.4 31.8008 35.8 32.8008 34.6 34.1008C34.5 34.2008 34.4 34.3008 34.3 34.4008V18.8008L34.4 18.9008C34.8 19.3008 35.4 19.6008 36.1 19.6008H36.9C37.1 23.1008 39.3 26.1008 42.4 27.4008V29.4008C42.4 29.8008 42.5 30.1008 42.6 30.5008ZM57.5 18.8008V34.2008C56.2 32.8008 54.5001 31.7008 52.7001 31.1008C52.3001 31.0008 51.9 30.8008 51.5 30.7008C50.8 30.5008 50.0001 30.4008 49.2001 30.4008C49.3001 30.1008 49.4 29.7008 49.4 29.4008V27.4008C52.5 26.1008 54.7 23.1008 54.9 19.6008H55.7001C56.4001 19.6008 57 19.3008 57.4 18.9008C57.5 18.9008 57.5 18.8008 57.5 18.8008Z" fill="#445C6C"/>
<path d="M58.1001 17.2008C58.1001 17.8008 57.9001 18.3008 57.5001 18.8008L57.4001 18.9008C57.0001 19.3008 56.3001 19.6008 55.7001 19.6008H54.9001C54.9001 19.4008 54.9001 19.3008 54.9001 19.1008V14.8008H55.7001C56.4001 14.8008 57.1001 15.1008 57.5001 15.6008C57.9001 16.1008 58.1001 16.6008 58.1001 17.2008ZM36.9001 19.6008H36.1001C35.4001 19.6008 34.8001 19.3008 34.4001 18.9008L34.3001 18.8008C33.9001 18.4008 33.7001 17.8008 33.7001 17.2008C33.7001 16.6008 33.9001 16.1008 34.3001 15.6008C34.7001 15.1008 35.4001 14.8008 36.1001 14.8008H36.9001V19.1008C36.9001 19.3008 36.9001 19.5008 36.9001 19.6008Z" fill="#E0C28B"/>
<path d="M54.9 12.8016V19.2016C54.9 19.4016 54.9 19.5016 54.9 19.7016C54.7 23.2016 52.5 26.2016 49.4 27.5016C48.3 28.0016 47.1 28.2016 45.9 28.2016C44.7 28.2016 43.5 27.9016 42.4 27.5016C39.3 26.2016 37.1 23.2016 36.9 19.7016C36.9 19.5016 36.9 19.4016 36.9 19.2016V12.1016C38.2 13.3016 44 17.8016 49.7 11.5016C50.2 10.9016 50.7 10.3016 51.2 9.60156L53.4 11.5016L54.9 12.8016Z" fill="#F0D39A"/>
<path d="M57.5 11.5014V15.6014C57.1 15.1014 56.4001 14.8014 55.7001 14.8014H54.9V12.8014L53.4 11.5014L51.2001 9.60142C50.7001 10.3014 50.2001 11.0014 49.7001 11.5014C44.0001 17.8014 38.3 13.3014 36.9 12.1014V14.9014H36.1C35.4 14.9014 34.7 15.2014 34.3 15.7014V11.6014C34.3 8.40142 35.6001 5.50142 37.7001 3.40142C39.8001 1.30142 42.7 0.00141856 45.9 0.00141856C52.3 -0.0985814 57.5 5.10142 57.5 11.5014Z" fill="#445C6C"/>
<path d="M29.8 42.501H0C0 39.301 1.3 36.401 3.3 34.201C3.4 34.101 3.5 34.001 3.6 33.901C4.9 32.601 6.4 31.601 8.1 31.001C9 33.901 11.7 36.101 14.9 36.101C18.1 36.101 20.8 34.001 21.7 31.001C23.5 31.601 25.2 32.701 26.5 34.101C28.6 36.401 29.8 39.301 29.8 42.501Z" fill="#60EFA2"/>
<path d="M21.7001 31.1014C20.8001 34.0014 18.1001 36.2014 14.9001 36.2014C11.7001 36.2014 8.9001 34.1014 8.1001 31.1014C8.5001 31.0014 8.9001 30.8014 9.3001 30.7014C10.0001 30.5014 10.8001 30.4014 11.6001 30.4014C12.0001 31.8014 13.4001 32.9014 14.9001 32.9014C16.5001 32.9014 17.8001 31.9014 18.2001 30.4014C19.0001 30.4014 19.7001 30.5014 20.5001 30.7014C20.9001 30.9014 21.3001 31.0014 21.7001 31.1014Z" fill="#05D765"/>
<path d="M18.4 27.4014V29.4014C18.4 29.8014 18.3 30.1014 18.2 30.4014C17.8 31.8014 16.4 32.9014 14.9 32.9014C13.3 32.9014 12 31.9014 11.6 30.4014C11.5 30.1014 11.4 29.7014 11.4 29.4014V27.4014C12.5 27.9014 13.7 28.1014 14.9 28.1014C16.1 28.1014 17.3 27.9014 18.4 27.4014Z" fill="#E0C28B"/>
<path d="M11.6 30.5008C10.8 30.5008 10.1 30.6008 9.30005 30.8008C8.90005 30.9008 8.50005 31.0008 8.10005 31.2008C6.40005 31.8008 4.80005 32.8008 3.60005 34.1008C3.50005 34.2008 3.40005 34.3008 3.30005 34.4008V18.8008L3.40005 18.9008C3.80005 19.3008 4.40005 19.6008 5.10005 19.6008H5.90005C6.10005 23.1008 8.30005 26.1008 11.4 27.4008V29.4008C11.4 29.8008 11.5 30.1008 11.6 30.5008ZM26.5 18.8008V34.2008C25.2 32.8008 23.5001 31.7008 21.7001 31.1008C21.3001 31.0008 20.9 30.8008 20.5 30.7008C19.8 30.5008 19.0001 30.4008 18.2001 30.4008C18.3001 30.1008 18.4 29.7008 18.4 29.4008V27.4008C21.5 26.1008 23.7 23.1008 23.9 19.6008H24.7001C25.4001 19.6008 26 19.3008 26.4 18.9008C26.5 18.9008 26.5 18.8008 26.5 18.8008Z" fill="#171E22"/>
<path d="M27.1001 17.2008C27.1001 17.8008 26.9001 18.3008 26.5001 18.8008L26.4001 18.9008C26.0001 19.3008 25.3001 19.6008 24.7001 19.6008H23.9001C23.9001 19.4008 23.9001 19.3008 23.9001 19.1008V14.8008H24.7001C25.4001 14.8008 26.1001 15.1008 26.5001 15.6008C26.9001 16.1008 27.1001 16.6008 27.1001 17.2008ZM5.90007 19.6008H5.10007C4.40007 19.6008 3.80007 19.3008 3.40007 18.9008L3.30007 18.8008C2.90007 18.4008 2.70007 17.8008 2.70007 17.2008C2.70007 16.6008 2.90007 16.1008 3.30007 15.6008C3.70007 15.1008 4.40007 14.8008 5.10007 14.8008H5.90007V19.1008C5.90007 19.3008 5.90007 19.5008 5.90007 19.6008Z" fill="#E0C28B"/>
<path d="M23.9 12.8016V19.2016C23.9 19.4016 23.9 19.5016 23.9 19.7016C23.7 23.2016 21.5 26.2016 18.4 27.5016C17.3 28.0016 16.1 28.2016 14.9 28.2016C13.7 28.2016 12.5 27.9016 11.4 27.5016C8.30002 26.2016 6.10002 23.2016 5.90002 19.7016C5.90002 19.5016 5.90002 19.4016 5.90002 19.2016V12.1016C7.20002 13.3016 13 17.8016 18.7 11.5016C19.2 10.9016 19.7 10.3016 20.2 9.60156L22.4 11.5016L23.9 12.8016Z" fill="#F0D39A"/>
<path d="M26.5 11.5014V15.6014C26.1 15.1014 25.4001 14.8014 24.7001 14.8014H23.9V12.8014L22.4 11.5014L20.2001 9.60142C19.7001 10.3014 19.2001 11.0014 18.7001 11.5014C13.0001 17.8014 7.30005 13.3014 5.90005 12.1014V14.9014H5.10005C4.40005 14.9014 3.70005 15.2014 3.30005 15.7014V11.6014C3.30005 8.40142 4.60005 5.50142 6.70005 3.40142C8.80005 1.30142 11.7 0.00141856 14.9 0.00141856C21.3 -0.0985814 26.5 5.10142 26.5 11.5014Z" fill="#171E22"/>
</svg>
