<svg width="674" height="750" viewBox="0 0 674 750" fill="none" xmlns="http://www.w3.org/2000/svg">
<path d="M168.5 245.69V219.828C168.5 175.862 202.2 142.241 246.269 142.241H427.731C471.8 142.241 505.5 175.862 505.5 219.828V245.69C505.5 289.655 471.8 323.276 427.731 323.276H246.269C202.2 323.276 168.5 289.655 168.5 245.69Z" fill="#D5E5F2"/>
<path d="M414.769 271.552C436.245 271.552 453.654 254.183 453.654 232.759C453.654 211.334 436.245 193.966 414.769 193.966C393.294 193.966 375.885 211.334 375.885 232.759C375.885 254.183 393.294 271.552 414.769 271.552Z" fill="#01A6FF"/>
<path d="M596.231 426.724C632.523 426.724 661.038 455.172 661.038 491.379C661.038 527.586 632.523 556.034 596.231 556.034H531.423V426.724H596.231Z" fill="#607D95"/>
<path d="M337 64.6552C351.317 64.6552 362.923 53.0763 362.923 38.7931C362.923 24.5099 351.317 12.931 337 12.931C322.683 12.931 311.077 24.5099 311.077 38.7931C311.077 53.0763 322.683 64.6552 337 64.6552Z" fill="#EF4A4C"/>
<path d="M220.346 245.69V219.828C220.346 175.862 254.046 142.241 298.115 142.241H246.269C202.2 142.241 168.5 175.862 168.5 219.828V245.69C168.5 289.655 202.2 323.276 246.269 323.276H298.115C254.046 323.276 220.346 289.655 220.346 245.69Z" fill="#B0C4DA"/>
<path d="M259.231 271.552C280.706 271.552 298.115 254.183 298.115 232.759C298.115 211.334 280.706 193.966 259.231 193.966C237.755 193.966 220.346 211.334 220.346 232.759C220.346 254.183 237.755 271.552 259.231 271.552Z" fill="#01A6FF"/>
<path d="M246.269 232.759C246.269 214.655 256.638 201.724 272.192 196.552C267.008 193.966 264.415 193.966 259.231 193.966C238.492 193.966 220.346 212.069 220.346 232.759C220.346 253.448 238.492 271.552 259.231 271.552C264.415 271.552 267.008 271.552 272.192 268.965C256.638 263.793 246.269 250.862 246.269 232.759ZM401.808 232.759C401.808 214.655 412.177 201.724 427.731 196.552C422.546 193.966 419.954 193.966 414.769 193.966C394.031 193.966 375.885 212.069 375.885 232.759C375.885 253.448 394.031 271.552 414.769 271.552C419.954 271.552 422.546 271.552 427.731 268.965C412.177 263.793 401.808 250.862 401.808 232.759Z" fill="#006EF4"/>
<path d="M375.885 323.276V400.862H298.115V323.276H375.885Z" fill="#607D95"/>
<path d="M298.115 323.276H375.885V362.069H298.115V323.276ZM90.7308 685.345V556.034H77.7692C62.2154 556.034 49.2538 550.862 38.8846 543.103V685.345M583.269 685.345V556.034H596.231C611.785 556.034 624.746 550.862 635.115 543.103V685.345" fill="#4B6C85"/>
<path d="M77.7692 426.724C41.4769 426.724 12.9615 455.172 12.9615 491.379C12.9615 527.586 41.4769 556.034 77.7692 556.034H142.577V426.724H77.7692Z" fill="#607D95"/>
<path d="M38.8846 543.103V581.897C49.2538 589.655 62.2154 594.828 77.7692 594.828H90.7308V556.034H77.7692C62.2154 556.034 49.2538 550.862 38.8846 543.103ZM635.115 543.103V581.897C624.746 589.655 611.785 594.828 596.231 594.828H583.269V556.034H596.231C611.785 556.034 624.746 550.862 635.115 543.103Z" fill="#40657C"/>
<path d="M103.692 426.724V465.517C103.692 493.966 80.3615 517.241 51.8462 517.241H38.8846C31.1077 517.241 23.3308 514.655 18.1462 512.069C25.9231 537.931 49.2538 556.034 77.7692 556.034H142.577V426.724H103.692ZM570.308 426.724V465.517C570.308 493.966 593.638 517.241 622.154 517.241H635.115C642.892 517.241 650.669 514.655 655.854 512.069C648.077 537.931 624.746 556.034 596.231 556.034H531.423V426.724H570.308Z" fill="#4B6C85"/>
<path d="M142.577 659.483V426.724C142.577 411.207 152.946 400.862 168.5 400.862H505.5C521.054 400.862 531.423 411.207 531.423 426.724V659.483C531.423 675 521.054 685.345 505.5 685.345H168.5C152.946 685.345 142.577 675 142.577 659.483Z" fill="#90CFF1"/>
<path d="M324.038 633.621C267.008 633.621 220.346 587.069 220.346 530.172V400.862H168.5C152.946 400.862 142.577 411.207 142.577 426.724V659.483C142.577 675 152.946 685.345 168.5 685.345H505.5C521.054 685.345 531.423 675 531.423 659.483V633.621H324.038Z" fill="#70B7E6"/>
<path d="M337 155.172C329.223 155.172 324.038 150 324.038 142.241V64.6552C324.038 56.8965 329.223 51.7241 337 51.7241C344.777 51.7241 349.962 56.8965 349.962 64.6552V142.241C349.962 150 344.777 155.172 337 155.172Z" fill="#004463"/>
<path d="M337 77.5862C316.262 77.5862 298.115 59.4828 298.115 38.7931C298.115 18.1034 316.262 0 337 0C357.738 0 375.885 18.1034 375.885 38.7931C375.885 59.4828 357.738 77.5862 337 77.5862ZM337 25.8621C329.223 25.8621 324.038 31.0345 324.038 38.7931C324.038 46.5517 329.223 51.7241 337 51.7241C344.777 51.7241 349.962 46.5517 349.962 38.7931C349.962 31.0345 344.777 25.8621 337 25.8621ZM259.231 284.483C230.715 284.483 207.385 261.207 207.385 232.759C207.385 204.31 230.715 181.034 259.231 181.034C287.746 181.034 311.077 204.31 311.077 232.759C311.077 261.207 287.746 284.483 259.231 284.483ZM259.231 206.897C243.677 206.897 233.308 217.241 233.308 232.759C233.308 248.276 243.677 258.621 259.231 258.621C274.785 258.621 285.154 248.276 285.154 232.759C285.154 217.241 274.785 206.897 259.231 206.897ZM414.769 284.483C386.254 284.483 362.923 261.207 362.923 232.759C362.923 204.31 386.254 181.034 414.769 181.034C443.285 181.034 466.615 204.31 466.615 232.759C466.615 261.207 443.285 284.483 414.769 284.483ZM414.769 206.897C399.215 206.897 388.846 217.241 388.846 232.759C388.846 248.276 399.215 258.621 414.769 258.621C430.323 258.621 440.692 248.276 440.692 232.759C440.692 217.241 430.323 206.897 414.769 206.897Z" fill="#004463"/>
<path d="M427.731 336.207H246.269C197.015 336.207 155.538 294.828 155.538 245.69V219.828C155.538 170.69 197.015 129.31 246.269 129.31H427.731C476.985 129.31 518.462 170.69 518.462 219.828V245.69C518.462 294.828 476.985 336.207 427.731 336.207ZM246.269 155.172C209.977 155.172 181.462 183.621 181.462 219.828V245.69C181.462 281.897 209.977 310.345 246.269 310.345H427.731C464.023 310.345 492.538 281.897 492.538 245.69V219.828C492.538 183.621 464.023 155.172 427.731 155.172H246.269Z" fill="#004463"/>
<path d="M375.885 413.793H298.115C290.338 413.793 285.154 408.621 285.154 400.862V323.276C285.154 315.517 290.338 310.345 298.115 310.345H375.885C383.662 310.345 388.846 315.517 388.846 323.276V400.862C388.846 408.621 383.662 413.793 375.885 413.793ZM311.077 387.931H362.923V336.207H311.077V387.931Z" fill="#004463"/>
<path d="M505.5 698.276H168.5C147.762 698.276 129.615 680.172 129.615 659.483V426.724C129.615 406.034 147.762 387.931 168.5 387.931H505.5C526.238 387.931 544.385 406.034 544.385 426.724V659.483C544.385 680.172 526.238 698.276 505.5 698.276ZM168.5 413.793C160.723 413.793 155.538 418.966 155.538 426.724V659.483C155.538 667.241 160.723 672.414 168.5 672.414H505.5C513.277 672.414 518.462 667.241 518.462 659.483V426.724C518.462 418.966 513.277 413.793 505.5 413.793H168.5ZM116.654 750C108.877 750 103.692 744.828 103.692 737.069C103.692 716.379 85.5462 698.276 64.8077 698.276C44.0692 698.276 25.9231 716.379 25.9231 737.069C25.9231 744.828 20.7385 750 12.9615 750C5.18462 750 0 744.828 0 737.069C0 700.862 28.5154 672.414 64.8077 672.414C101.1 672.414 129.615 700.862 129.615 737.069C129.615 744.828 124.431 750 116.654 750Z" fill="#004463"/>
<path d="M142.577 568.966H77.7692C33.7 568.966 0 535.345 0 491.379C0 447.414 33.7 413.793 77.7692 413.793H142.577C150.354 413.793 155.538 418.966 155.538 426.724V556.034C155.538 563.793 150.354 568.966 142.577 568.966ZM77.7692 439.655C49.2538 439.655 25.9231 462.931 25.9231 491.379C25.9231 519.828 49.2538 543.103 77.7692 543.103H129.615V439.655H77.7692Z" fill="#004463"/>
<path d="M90.7308 698.276C82.9538 698.276 77.7692 693.103 77.7692 685.345V568.966C69.9923 568.966 59.6231 566.379 51.8462 563.793V685.345C51.8462 693.103 46.6615 698.276 38.8846 698.276C31.1077 698.276 25.9231 693.103 25.9231 685.345V543.103C25.9231 537.931 28.5154 532.759 33.7 532.759C38.8846 532.759 44.0692 530.172 46.6615 532.759C57.0308 540.517 67.4 543.103 77.7692 543.103H90.7308C98.5077 543.103 103.692 548.276 103.692 556.034V685.345C103.692 693.103 98.5077 698.276 90.7308 698.276ZM661.038 750C653.262 750 648.077 744.828 648.077 737.069C648.077 716.379 629.931 698.276 609.192 698.276C588.454 698.276 570.308 716.379 570.308 737.069C570.308 744.828 565.123 750 557.346 750C549.569 750 544.385 744.828 544.385 737.069C544.385 700.862 572.9 672.414 609.192 672.414C645.485 672.414 674 700.862 674 737.069C674 744.828 668.815 750 661.038 750ZM596.231 568.966H531.423C523.646 568.966 518.462 563.793 518.462 556.034V426.724C518.462 418.966 523.646 413.793 531.423 413.793H596.231C640.3 413.793 674 447.414 674 491.379C674 535.345 640.3 568.966 596.231 568.966ZM544.385 543.103H596.231C624.746 543.103 648.077 519.828 648.077 491.379C648.077 462.931 624.746 439.655 596.231 439.655H544.385V543.103Z" fill="#004463"/>
<path d="M635.115 698.276C627.338 698.276 622.154 693.103 622.154 685.345V563.793C614.377 566.379 604.008 568.966 596.231 568.966V685.345C596.231 693.103 591.046 698.276 583.269 698.276C575.492 698.276 570.308 693.103 570.308 685.345V556.034C570.308 548.276 575.492 543.103 583.269 543.103H596.231C606.6 543.103 616.969 540.517 627.339 532.759C632.523 530.172 637.708 530.172 640.3 532.759C645.485 535.345 648.077 540.517 648.077 543.103V685.345C648.077 693.103 642.892 698.276 635.115 698.276ZM440.692 594.828C432.915 594.828 427.731 589.655 427.731 581.897V478.448C427.731 470.69 432.915 465.517 440.692 465.517C448.469 465.517 453.654 470.69 453.654 478.448V581.897C453.654 589.655 448.469 594.828 440.692 594.828Z" fill="#004463"/>
<path d="M466.615 491.379H414.769C406.992 491.379 401.808 486.207 401.808 478.448C401.808 470.69 406.992 465.517 414.769 465.517H466.615C474.392 465.517 479.577 470.69 479.577 478.448C479.577 486.207 474.392 491.379 466.615 491.379ZM233.308 543.103H207.385C199.608 543.103 194.423 537.931 194.423 530.172V478.448C194.423 470.69 199.608 465.517 207.385 465.517H233.308C254.046 465.517 272.192 483.621 272.192 504.31C272.192 525 254.046 543.103 233.308 543.103ZM220.346 517.241H233.308C241.085 517.241 246.269 512.069 246.269 504.31C246.269 496.552 241.085 491.379 233.308 491.379H220.346V517.241Z" fill="#004463"/>
<path d="M233.308 594.828H207.385C199.608 594.828 194.423 589.655 194.423 581.897V530.172C194.423 522.414 199.608 517.241 207.385 517.241H233.308C254.046 517.241 272.192 535.345 272.192 556.034C272.192 576.724 254.046 594.828 233.308 594.828ZM220.346 568.966H233.308C241.085 568.966 246.269 563.793 246.269 556.034C246.269 548.276 241.085 543.103 233.308 543.103H220.346V568.966ZM337 594.828C316.262 594.828 298.115 576.724 298.115 556.034V504.31C298.115 483.621 316.262 465.517 337 465.517C357.738 465.517 375.885 483.621 375.885 504.31V556.034C375.885 576.724 357.738 594.828 337 594.828ZM337 491.379C329.223 491.379 324.038 496.552 324.038 504.31V556.034C324.038 563.793 329.223 568.966 337 568.966C344.777 568.966 349.962 563.793 349.962 556.034V504.31C349.962 496.552 344.777 491.379 337 491.379Z" fill="#004463"/>
</svg>
